<?xml version="1.0" encoding="utf-8"?>
<!-- Svg Vector Icons : http://www.onlinewebfonts.com/icon -->
<!DOCTYPE svg PUBLIC "-//W3C//DTD SVG 1.1//EN" "http://www.w3.org/Graphics/SVG/1.1/DTD/svg11.dtd">
<svg version="1.1" xmlns="http://www.w3.org/2000/svg" xmlns:xlink="http://www.w3.org/1999/xlink" x="0px" y="0px" viewBox="0 0 1000 1000" enable-background="new 0 0 1000 1000" xml:space="preserve">
<metadata> Svg Vector Icons : http://www.onlinewebfonts.com/icon </metadata>
<g><path d="M990,500c0,270.6-219.4,490-490,490C229.4,990,10,770.6,10,500C10,229.4,229.4,10,500,10C770.6,10,990,229.4,990,500z M497.6,75.8C263.3,75.8,73.4,265.7,73.4,500c0,234.3,189.9,424.2,424.2,424.2c234.3,0,424.2-189.9,424.2-424.2C921.7,265.7,731.8,75.8,497.6,75.8z"/><path d="M500,296.8L174.1,428.5l323.4,156l263.3-113.8V550c0,0-54.9,59.7,11,89c13.4,0,67-20.7,28-89c0-25.6-6.1-91.4-6.1-91.4l14.6-9.9L500,296.8z"/><path d="M329.3,556.7l170.3,100.9l171-112.1l21.1,24.7L499.6,698L309.8,583.6L329.3,556.7z"/></g>
</svg>